<?xml version="1.0" standalone="no"?>
<!DOCTYPE svg PUBLIC "-//W3C//DTD SVG 20010904//EN"
 "http://www.w3.org/TR/2001/REC-SVG-20010904/DTD/svg10.dtd">
<svg version="1.0" xmlns="http://www.w3.org/2000/svg"
 width="443.000000pt" height="564.000000pt" viewBox="0 0 443.000000 564.000000"
 preserveAspectRatio="xMidYMid meet">

<g transform="translate(0.000000,564.000000) scale(0.100000,-0.100000)"
fill="#000000" stroke="none">
<path d="M2887 5367 c-82 -27 -95 -35 -190 -121 -56 -51 -118 -111 -138 -133
-20 -22 -58 -55 -83 -73 -67 -46 -130 -131 -177 -240 -97 -222 -127 -254 -142
-151 -8 57 -13 69 -24 58 -15 -16 -19 -115 -7 -205 28 -212 16 -426 -42 -712
-23 -114 -28 -161 -28 -308 -1 -163 -6 -179 -21 -70 -4 30 -19 65 -40 95 -18
27 -50 72 -71 102 l-37 55 -1 285 -1 286 -26 56 c-47 100 -190 239 -246 239
-14 0 -23 -3 -21 -7 117 -229 178 -396 178 -491 0 -34 0 -35 -20 -17 -10 9
-24 34 -31 54 -36 114 -144 242 -243 291 -56 26 -183 29 -193 3 -3 -9 1 -56
11 -105 17 -88 17 -89 -4 -118 -20 -28 -25 -30 -90 -30 -62 0 -70 -2 -89 -26
-12 -15 -21 -37 -21 -51 0 -26 43 -114 89 -183 l31 -45 -59 -20 c-142 -49
-189 -121 -118 -181 52 -44 182 -94 245 -94 13 0 42 -13 65 -28 112 -75 199
-77 378 -5 77 31 92 34 104 22 7 -8 52 -87 100 -177 79 -147 87 -166 82 -203
-3 -22 -8 -43 -11 -46 -3 -4 -27 12 -53 33 -56 46 -108 79 -178 113 -77 36
-98 40 -133 25 l-32 -13 0 -98 c1 -257 38 -327 205 -389 34 -13 44 -20 30 -22
-107 -17 -127 -25 -221 -92 -54 -38 -117 -77 -141 -86 -23 -9 -43 -22 -43 -29
0 -15 146 -132 197 -159 50 -25 109 -17 195 28 38 20 70 36 71 36 1 0 3 -89 3
-197 2 -236 12 -339 58 -578 46 -235 64 -416 76 -775 13 -398 31 -712 42 -730
6 -9 7 34 4 110 -3 69 -10 269 -16 445 -18 560 -31 704 -94 1000 -61 292 -75
687 -26 748 10 12 21 20 23 17 3 -3 -1 -48 -9 -100 -16 -104 -12 -207 12 -400
17 -127 22 -150 33 -150 5 0 23 59 41 130 23 88 36 126 42 116 5 -9 -8 -70
-36 -164 l-44 -148 23 -138 c51 -293 55 -341 70 -896 10 -367 19 -548 26 -555
8 -7 10 36 5 160 -3 94 -8 294 -11 445 -8 392 -22 580 -56 767 -16 89 -29 182
-29 205 0 38 60 262 74 275 3 3 17 -2 32 -12 23 -15 32 -16 68 -5 23 7 49 19
60 28 43 40 91 177 103 295 l6 68 55 -56 c62 -62 118 -85 208 -85 69 0 213 28
243 47 20 13 23 21 19 62 -13 135 -111 223 -323 291 -38 12 -74 26 -78 30 -5
4 54 10 130 13 150 7 341 42 396 75 27 15 33 25 35 59 4 56 -23 106 -91 170
-141 134 -294 120 -520 -47 -50 -37 -93 -67 -95 -65 -1 1 20 40 48 86 63 104
95 203 115 355 27 210 20 255 -40 270 -20 5 -41 -8 -112 -66 -111 -90 -165
-155 -211 -250 -45 -92 -51 -156 -27 -305 9 -59 19 -115 23 -123 3 -9 1 -13
-5 -9 -19 12 -93 157 -93 181 0 13 9 49 20 82 43 123 71 245 85 369 15 127 16
130 76 244 78 146 94 168 180 238 l71 57 161 1 c144 0 168 3 218 23 169 68
419 328 389 406 -5 13 -4 30 2 41 16 27 -19 51 -95 64 -127 22 -222 10 -334
-44 -137 -64 -218 -135 -285 -248 -36 -59 -50 -73 -123 -117 -45 -27 -95 -66
-110 -85 -39 -52 -100 -187 -143 -317 l-37 -113 -3 57 c-2 32 10 132 27 230
17 95 37 232 46 303 46 396 46 396 163 460 110 61 161 104 217 184 56 80 212
237 302 305 62 47 110 129 112 193 0 23 -3 43 -7 45 -4 2 -47 -9 -95 -25z m76
-17 c-7 -25 -47 -58 -82 -67 -59 -14 -121 -67 -179 -154 -17 -26 -48 -57 -69
-69 -21 -13 -33 -25 -26 -27 24 -9 72 29 117 91 56 78 91 109 153 132 26 9 54
22 61 27 20 16 22 4 5 -32 -9 -18 -37 -49 -62 -69 -25 -21 -95 -84 -155 -142
-60 -58 -103 -95 -97 -82 6 12 8 22 3 22 -5 0 -15 -15 -22 -32 -25 -67 -36
-84 -100 -148 -38 -38 -100 -87 -150 -115 -124 -73 -131 -89 -170 -405 -17
-135 -44 -316 -60 -404 -24 -124 -30 -186 -30 -288 0 -83 4 -127 10 -123 6 3
10 22 10 42 0 52 84 312 136 421 51 107 91 149 190 201 48 25 73 45 83 66 19
39 81 123 120 163 47 47 173 122 244 144 81 26 244 29 300 5 35 -15 37 -17 25
-44 -21 -49 -72 -110 -118 -141 -57 -38 -148 -66 -301 -92 -137 -23 -213 -54
-258 -106 -45 -50 -41 -60 22 -59 61 1 129 33 209 98 43 34 68 46 128 59 151
33 263 94 306 168 28 46 37 36 13 -12 -91 -178 -304 -335 -484 -356 -44 -5
-81 -8 -83 -7 -2 2 21 17 50 33 75 43 138 90 138 103 0 6 -21 -4 -47 -23 -27
-19 -77 -51 -113 -71 -59 -33 -72 -36 -131 -34 -64 2 -66 1 -137 -52 -90 -66
-105 -86 -183 -235 -73 -142 -75 -149 -89 -280 -15 -144 -101 -450 -115 -413
-9 21 0 70 27 162 19 61 22 97 23 275 1 188 4 219 33 365 55 278 58 365 25
740 -3 41 -2 57 5 50 6 -5 12 -21 14 -35 2 -19 9 -25 28 -25 22 0 34 18 110
169 91 181 124 228 198 278 l47 32 -56 -64 c-63 -73 -174 -229 -167 -235 2 -3
37 41 77 96 92 126 183 225 232 249 20 11 54 41 76 66 21 26 62 65 91 86 30
22 51 42 49 45 -11 10 -95 -48 -149 -104 -31 -32 -71 -67 -89 -77 -38 -21 129
140 193 188 21 16 69 36 106 46 37 10 68 19 69 19 0 1 -1 -8 -4 -19z m-1225
-927 c40 -41 84 -96 97 -123 28 -55 45 -148 44 -235 l-1 -60 -18 90 c-21 107
-59 210 -103 283 -50 83 -48 60 4 -43 73 -147 109 -327 109 -548 l0 -122 36
-55 c20 -30 48 -69 64 -86 35 -40 46 -76 59 -184 9 -81 6 -140 -8 -140 -3 0
-39 58 -80 128 -41 70 -83 142 -93 160 -11 17 -27 32 -35 32 -9 0 -57 -16
-107 -36 -67 -27 -111 -38 -167 -42 -73 -4 -79 -3 -148 33 -66 35 -171 131
-171 156 0 5 26 -3 58 -17 73 -33 214 -85 218 -81 2 1 -58 29 -132 62 -75 33
-138 64 -141 68 -17 27 49 15 212 -39 54 -18 101 -31 103 -29 13 12 -220 93
-280 97 -21 2 -38 6 -38 10 0 38 219 60 333 34 76 -18 153 -54 181 -85 11 -12
24 -21 30 -21 19 0 -55 68 -102 93 -46 25 -128 45 -205 50 l-39 2 -64 144
c-90 203 -87 215 37 130 105 -72 149 -109 273 -229 71 -68 98 -89 76 -60 -60
78 -180 188 -307 283 -78 58 -119 95 -113 101 5 5 34 11 63 14 138 11 327 -94
405 -226 28 -49 52 -137 52 -194 0 -22 5 -38 11 -38 21 0 3 133 -26 202 -15
35 -33 103 -40 151 -18 120 -47 209 -109 342 -48 100 -51 112 -32 107 11 -3
54 -39 94 -79z m-253 -93 c71 -41 150 -122 180 -186 14 -29 25 -55 25 -59 0
-3 -18 7 -40 21 -22 15 -40 31 -40 36 0 5 -31 40 -69 77 -67 65 -168 127 -192
119 -7 -2 14 -17 46 -33 33 -16 89 -58 129 -97 70 -67 71 -68 31 -52 -23 8
-60 37 -87 67 -25 29 -50 49 -54 44 -4 -4 9 -24 29 -45 l37 -38 -75 0 c-81 0
-78 -2 -89 66 l-6 35 14 -30 c8 -16 15 -23 15 -15 1 29 -12 60 -25 60 -9 0
-14 11 -14 30 l0 30 66 0 c56 0 75 -5 119 -30z m1260 -155 c-69 -57 -222 -115
-185 -70 27 33 144 86 210 94 3 1 -8 -10 -25 -24z m-1508 -81 c12 -3 23 -16
25 -29 5 -23 4 -23 -35 -9 -44 16 -67 18 -67 7 0 -5 27 -16 60 -26 64 -18 72
-28 114 -132 15 -38 12 -36 -58 40 -41 44 -78 77 -82 73 -7 -8 83 -110 137
-155 26 -22 59 -71 59 -88 0 -32 -136 95 -201 188 -18 27 -35 44 -37 38 -5
-16 54 -98 122 -168 l59 -63 -35 0 c-39 0 -55 14 -110 100 -71 110 -91 166
-70 196 19 29 70 41 119 28z m-7 -327 c0 -26 -35 -45 -98 -51 -35 -4 -71 -10
-79 -13 -12 -5 -14 -3 -8 7 11 18 125 69 158 70 16 0 27 -5 27 -13z m-40 -83
c0 -12 -6 -15 -22 -10 -13 3 -39 6 -58 7 -32 1 -33 2 -10 9 46 15 90 12 90 -6z
m4 -56 c8 -18 24 -48 36 -65 l22 -33 -34 6 c-46 9 -164 63 -184 85 -26 29 -8
39 71 39 75 0 75 0 89 -32z m1286 -66 c0 -14 -57 -89 -133 -177 -84 -97 -121
-158 -148 -248 -27 -87 -18 -99 10 -14 12 36 39 92 59 126 41 68 175 224 180
210 2 -4 -6 -61 -19 -125 -15 -79 -32 -138 -55 -183 -18 -36 -31 -67 -30 -69
5 -4 63 89 76 122 15 41 29 106 45 215 15 96 31 134 46 109 5 -7 6 -29 4 -48
-2 -19 -10 -75 -16 -125 -28 -229 -70 -338 -193 -503 -21 -29 -37 -55 -34 -57
3 -3 58 35 123 85 165 124 239 162 331 168 100 6 135 -3 194 -49 72 -57 119
-125 120 -172 0 -53 -32 -69 -204 -104 -128 -25 -158 -28 -323 -26 -101 1
-183 -2 -183 -6 0 -5 28 -14 63 -20 90 -17 213 -56 289 -91 108 -48 173 -117
198 -210 10 -38 9 -45 -7 -62 -48 -48 -301 -63 -372 -23 -41 25 -195 206 -218
256 -9 21 -20 36 -25 33 -12 -7 17 -69 58 -127 36 -50 37 -52 31 -126 -6 -90
-45 -219 -80 -264 -15 -20 -42 -39 -67 -47 -42 -14 -43 -14 -66 15 -13 17 -43
68 -66 114 -38 74 -43 91 -42 150 1 112 76 321 116 321 6 0 8 -13 4 -32 -38
-206 -39 -266 -6 -390 20 -71 22 -33 4 57 -15 78 -16 100 -4 199 16 144 21
196 15 196 -3 0 -40 -27 -82 -61 -152 -118 -189 -144 -261 -181 -55 -29 -85
-38 -122 -38 -44 0 -56 6 -128 60 -121 91 -121 90 -10 90 90 0 273 35 318 61
26 15 -7 11 -95 -11 -44 -11 -127 -23 -185 -26 l-105 -5 40 22 c22 12 65 41
95 64 111 86 149 94 355 75 l144 -13 -97 -44 c-53 -23 -98 -43 -101 -43 -2 0
-2 -2 1 -5 10 -10 228 89 228 104 0 4 -40 11 -90 15 -173 13 -329 70 -388 142
-40 48 -52 107 -52 253 l0 119 29 12 c26 10 38 7 124 -35 130 -63 235 -160
295 -274 44 -83 99 -151 122 -151 9 0 8 5 -3 18 -20 21 -57 226 -57 311 0 118
70 256 179 351 35 30 80 70 100 87 34 31 71 43 71 25z m-413 -1025 c-63 -166
-72 -271 -31 -375 l27 -66 -27 -105 c-38 -144 -40 -145 -55 -26 -23 185 -25
300 -6 417 17 101 21 115 49 140 33 30 51 36 43 15z"/>
<path d="M2590 5010 c8 -5 20 -10 25 -10 6 0 3 5 -5 10 -8 5 -19 10 -25 10 -5
0 -3 -5 5 -10z"/>
<path d="M2490 4895 c-7 -9 -11 -18 -8 -20 3 -3 11 1 18 10 7 9 11 18 8 20 -3
3 -11 -1 -18 -10z"/>
<path d="M2514 4858 l-29 -33 33 29 c30 28 37 36 29 36 -2 0 -16 -15 -33 -32z"/>
<path d="M2435 4839 c-11 -17 1 -21 15 -4 8 9 8 15 2 15 -6 0 -14 -5 -17 -11z"/>
<path d="M2835 4436 c-86 -28 -167 -87 -226 -167 -23 -29 -58 -74 -80 -100
-55 -66 -48 -75 9 -11 51 58 93 79 253 128 49 15 87 29 85 32 -3 2 -62 -15
-132 -37 -70 -23 -129 -39 -131 -37 -6 6 110 71 172 96 33 13 65 28 70 33 17
16 -35 -3 -125 -45 l-85 -39 29 30 c34 36 130 88 206 112 43 14 49 18 25 18
-16 0 -48 -6 -70 -13z"/>
<path d="M2465 4086 c4 -37 11 -54 19 -45 2 2 -3 22 -10 44 l-14 40 5 -39z"/>
<path d="M2845 4095 c-22 -13 -36 -25 -32 -25 11 0 87 39 87 45 0 10 -16 4
-55 -20z"/>
<path d="M1701 4399 c-1 -8 43 -116 63 -154 9 -16 16 -23 15 -15 0 15 -77 180
-78 169z"/>
<path d="M1660 4013 c11 -16 35 -46 52 -68 17 -22 46 -73 66 -113 19 -40 36
-71 38 -69 5 5 -35 103 -56 138 -23 40 -104 138 -113 139 -5 0 1 -12 13 -27z"/>
<path d="M1613 3979 c14 -20 24 -39 21 -42 -3 -3 10 -27 30 -53 20 -26 36 -43
36 -38 0 6 -13 25 -30 44 -34 41 -40 62 -9 34 22 -19 22 -19 11 1 -6 11 -27
36 -48 55 l-38 35 27 -36z"/>
<path d="M1539 3654 c30 -13 56 -23 58 -20 4 4 -92 46 -104 45 -4 0 16 -11 46
-25z"/>
<path d="M1840 3540 c57 -115 135 -240 149 -240 5 0 11 5 13 12 5 15 -126 281
-148 299 -20 17 -20 15 30 -81 52 -99 96 -190 92 -190 -9 0 -70 105 -116 198
-27 56 -54 102 -60 102 -6 0 12 -45 40 -100z"/>
<path d="M1972 3451 c18 -33 35 -55 36 -50 4 11 -43 95 -58 104 -6 4 4 -21 22
-54z"/>
<path d="M1350 4284 c0 -10 55 -84 63 -84 8 0 -14 44 -36 73 -14 17 -27 22
-27 11z"/>
<path d="M1653 3213 c141 -249 237 -376 342 -455 22 -17 12 -5 -22 26 -77 70
-148 166 -238 318 -39 65 -74 118 -78 118 -5 0 -6 -3 -4 -7z"/>
<path d="M1630 3198 c0 -23 103 -205 160 -283 82 -114 92 -126 97 -122 2 3
-15 31 -39 64 -61 80 -123 181 -169 274 -39 77 -49 92 -49 67z"/>
<path d="M2310 3143 c-24 -63 -70 -239 -69 -263 0 -8 13 32 29 90 16 58 38
132 49 164 27 77 20 85 -9 9z"/>
<path d="M1720 3185 c0 -38 201 -243 281 -285 36 -20 19 -2 -45 45 -58 42
-135 121 -208 213 -16 19 -28 31 -28 27z"/>
<path d="M2226 3069 c-9 -29 -16 -60 -15 -68 0 -9 9 13 20 48 10 36 17 67 14
69 -2 2 -11 -20 -19 -49z"/>
<path d="M2201 2964 c0 -11 3 -14 6 -6 3 7 2 16 -1 19 -3 4 -6 -2 -5 -13z"/>
<path d="M2685 2923 c-52 -12 -130 -40 -235 -85 -156 -67 -162 -70 -125 -63
17 4 81 29 144 57 62 28 152 62 200 74 71 18 84 32 16 17z"/>
<path d="M2595 2839 c-97 -14 -275 -75 -275 -94 0 -2 35 9 78 25 116 42 222
61 356 63 69 0 108 4 91 8 -42 9 -178 8 -250 -2z"/>
<path d="M2186 2729 c-35 -27 -35 -72 -1 -95 61 -40 131 50 77 99 -25 22 -44
21 -76 -4z m54 -3 c0 -2 -9 -6 -20 -9 -11 -3 -20 -1 -20 4 0 5 9 9 20 9 11 0
20 -2 20 -4z m20 -36 c0 -21 -19 -28 -21 -7 0 10 -2 10 -6 0 -5 -15 -53 -18
-53 -4 0 9 44 29 68 30 6 1 12 -8 12 -19z m-40 -40 c12 -8 11 -10 -7 -10 -12
0 -25 5 -28 10 -8 13 15 13 35 0z"/>
<path d="M2340 2639 c33 -26 240 -129 260 -129 8 1 -30 22 -85 49 -55 26 -119
59 -142 74 -50 32 -69 35 -33 6z"/>
<path d="M2359 2580 c51 -28 109 -59 127 -71 19 -11 34 -19 34 -16 0 8 -106
75 -168 106 -101 51 -95 35 7 -19z"/>
<path d="M2206 2593 c-22 -72 -24 -498 -2 -520 2 -3 2 50 -1 118 -3 68 0 189
5 269 10 140 10 171 -2 133z"/>
<path d="M2275 2591 c11 -13 51 -44 88 -68 37 -24 94 -67 127 -94 33 -27 60
-45 60 -40 0 14 -73 74 -165 137 -44 29 -91 61 -105 71 l-25 17 20 -23z"/>
<path d="M1765 2489 c-33 -11 -95 -23 -137 -26 -78 -6 -99 -23 -29 -23 43 0
168 30 221 53 49 21 17 19 -55 -4z"/>
<path d="M2079 2463 c-22 -76 -17 -166 15 -263 16 -47 33 -89 39 -95 7 -7 7
-4 2 10 -48 127 -65 247 -46 334 14 68 8 77 -10 14z"/>
</g>
</svg>
